<mxfile host="app.diagrams.net" modified="2022-05-15T05:46:26.637Z" agent="5.0 (Macintosh; Intel Mac OS X 10_15_7) AppleWebKit/537.36 (KHTML, like Gecko) Chrome/100.0.4896.127 Safari/537.36" etag="cpdEK_wV5Nz45BC3E68j" version="18.0.4" type="github">
  <diagram id="SUV6qh16abfq_7q-xklW" name="第 1 页">
    <mxGraphModel dx="850" dy="558" grid="1" gridSize="10" guides="1" tooltips="1" connect="1" arrows="1" fold="1" page="1" pageScale="1" pageWidth="1169" pageHeight="826" math="0" shadow="0">
      <root>
        <mxCell id="0" />
        <mxCell id="1" parent="0" />
        <mxCell id="yG5bEtJIZh4I9bDwAsNS-15" style="orthogonalLoop=1;jettySize=auto;html=1;exitX=0.75;exitY=0.1;exitDx=0;exitDy=0;exitPerimeter=0;entryX=0;entryY=0.5;entryDx=0;entryDy=0;strokeColor=default;rounded=1;" edge="1" parent="1" source="yG5bEtJIZh4I9bDwAsNS-1" target="yG5bEtJIZh4I9bDwAsNS-14">
          <mxGeometry relative="1" as="geometry" />
        </mxCell>
        <mxCell id="yG5bEtJIZh4I9bDwAsNS-17" style="edgeStyle=none;rounded=1;orthogonalLoop=1;jettySize=auto;html=1;exitX=1;exitY=0.3333333333333333;exitDx=0;exitDy=0;exitPerimeter=0;entryX=0;entryY=0.5;entryDx=0;entryDy=0;strokeColor=default;" edge="1" parent="1" source="yG5bEtJIZh4I9bDwAsNS-1" target="yG5bEtJIZh4I9bDwAsNS-16">
          <mxGeometry relative="1" as="geometry" />
        </mxCell>
        <mxCell id="yG5bEtJIZh4I9bDwAsNS-20" style="edgeStyle=none;rounded=1;orthogonalLoop=1;jettySize=auto;html=1;exitX=1;exitY=0.3333333333333333;exitDx=0;exitDy=0;exitPerimeter=0;entryX=0;entryY=0.5;entryDx=0;entryDy=0;strokeColor=default;" edge="1" parent="1" source="yG5bEtJIZh4I9bDwAsNS-1" target="yG5bEtJIZh4I9bDwAsNS-19">
          <mxGeometry relative="1" as="geometry" />
        </mxCell>
        <mxCell id="yG5bEtJIZh4I9bDwAsNS-21" style="edgeStyle=none;rounded=1;orthogonalLoop=1;jettySize=auto;html=1;exitX=1;exitY=1;exitDx=0;exitDy=0;exitPerimeter=0;entryX=0;entryY=0.5;entryDx=0;entryDy=0;strokeColor=default;" edge="1" parent="1" source="yG5bEtJIZh4I9bDwAsNS-1" target="yG5bEtJIZh4I9bDwAsNS-18">
          <mxGeometry relative="1" as="geometry" />
        </mxCell>
        <mxCell id="yG5bEtJIZh4I9bDwAsNS-1" value="Actor" style="shape=umlActor;verticalLabelPosition=bottom;verticalAlign=top;html=1;" vertex="1" parent="1">
          <mxGeometry x="220" y="260" width="30" height="60" as="geometry" />
        </mxCell>
        <mxCell id="yG5bEtJIZh4I9bDwAsNS-14" value="爬虫管理" style="ellipse;whiteSpace=wrap;html=1;" vertex="1" parent="1">
          <mxGeometry x="320" y="160" width="90" height="50" as="geometry" />
        </mxCell>
        <mxCell id="yG5bEtJIZh4I9bDwAsNS-16" value="数据管理" style="ellipse;whiteSpace=wrap;html=1;" vertex="1" parent="1">
          <mxGeometry x="320" y="240" width="90" height="50" as="geometry" />
        </mxCell>
        <mxCell id="yG5bEtJIZh4I9bDwAsNS-18" value="集群管理" style="ellipse;whiteSpace=wrap;html=1;" vertex="1" parent="1">
          <mxGeometry x="320" y="390" width="90" height="50" as="geometry" />
        </mxCell>
        <mxCell id="yG5bEtJIZh4I9bDwAsNS-19" value="索引管理" style="ellipse;whiteSpace=wrap;html=1;" vertex="1" parent="1">
          <mxGeometry x="320" y="310" width="90" height="50" as="geometry" />
        </mxCell>
        <mxCell id="yG5bEtJIZh4I9bDwAsNS-25" style="edgeStyle=none;rounded=1;orthogonalLoop=1;jettySize=auto;html=1;exitX=0;exitY=0.3333333333333333;exitDx=0;exitDy=0;exitPerimeter=0;entryX=1;entryY=1;entryDx=0;entryDy=0;strokeColor=default;" edge="1" parent="1" source="yG5bEtJIZh4I9bDwAsNS-22" target="yG5bEtJIZh4I9bDwAsNS-23">
          <mxGeometry relative="1" as="geometry" />
        </mxCell>
        <mxCell id="yG5bEtJIZh4I9bDwAsNS-26" style="edgeStyle=none;rounded=1;orthogonalLoop=1;jettySize=auto;html=1;exitX=0;exitY=1;exitDx=0;exitDy=0;exitPerimeter=0;entryX=1;entryY=0.5;entryDx=0;entryDy=0;strokeColor=default;" edge="1" parent="1" source="yG5bEtJIZh4I9bDwAsNS-22" target="yG5bEtJIZh4I9bDwAsNS-24">
          <mxGeometry relative="1" as="geometry" />
        </mxCell>
        <mxCell id="yG5bEtJIZh4I9bDwAsNS-22" value="Actor" style="shape=umlActor;verticalLabelPosition=bottom;verticalAlign=top;html=1;" vertex="1" parent="1">
          <mxGeometry x="620" y="255" width="30" height="60" as="geometry" />
        </mxCell>
        <mxCell id="yG5bEtJIZh4I9bDwAsNS-23" value="代码检索" style="ellipse;whiteSpace=wrap;html=1;" vertex="1" parent="1">
          <mxGeometry x="480" y="195" width="90" height="50" as="geometry" />
        </mxCell>
        <mxCell id="yG5bEtJIZh4I9bDwAsNS-24" value="数据分析" style="ellipse;whiteSpace=wrap;html=1;" vertex="1" parent="1">
          <mxGeometry x="480" y="335" width="90" height="50" as="geometry" />
        </mxCell>
      </root>
    </mxGraphModel>
  </diagram>
</mxfile>
